# xmcd
#
# Track frame offsets:
#	150
#	22237
#	40740
#	62350
#	83650
#	107187
#	138932
#	156447
#	174365
#	194157
#	212475
#	229890
#
# Disc length: 3384 seconds
#
# Revision: 0
# Processed by: cddbd v1.5.1PL0 Copyright (c) Steve Scherf et al.
# Submitted via: audiograbber 1.83.01
#
DISCID=a20d360c
DTITLE=John Primer - Keep on lovin' the blues
DYEAR=1900
DGENRE=Blues
TTITLE0=Keep on lovin' the blues
TTITLE1=Axe to grind
TTITLE2=My pencil won't write no more
TTITLE3=One minute
TTITLE4=Oh yeah !
TTITLE5=When I reach out for your love
TTITLE6=Close to you
TTITLE7=You can't stop doin' what you're doin'
TTITLE8=Like a ship
TTITLE9=I've been travellin'
TTITLE10=Pay the price
TTITLE11=Meet me at the crossroads
EXTD=
EXTT0=
EXTT1=
EXTT2=
EXTT3=
EXTT4=
EXTT5=
EXTT6=
EXTT7=
EXTT8=
EXTT9=
EXTT10=
EXTT11=
PLAYORDER=
